<?xml version="1.0" encoding="UTF-8" standalone="no"?>
<!-- Created with Inkscape (http://www.inkscape.org/) -->

<svg
   xmlns:dc="http://purl.org/dc/elements/1.1/"
   xmlns:cc="http://creativecommons.org/ns#"
   xmlns:rdf="http://www.w3.org/1999/02/22-rdf-syntax-ns#"
   xmlns:svg="http://www.w3.org/2000/svg"
   xmlns="http://www.w3.org/2000/svg"
   xmlns:sodipodi="http://sodipodi.sourceforge.net/DTD/sodipodi-0.dtd"
   xmlns:inkscape="http://www.inkscape.org/namespaces/inkscape"
   width="1000"
   height="1213.0811"
   viewBox="0 0 264.58333 320.96104"
   version="1.1"
   id="svg39404"
   inkscape:version="0.92.4 (5da689c313, 2019-01-14)"
   sodipodi:docname="Taco Bell.svg">
  <defs
     id="defs39398" />
  <sodipodi:namedview
     id="base"
     pagecolor="#ffffff"
     bordercolor="#666666"
     borderopacity="1.0"
     inkscape:pageopacity="0.0"
     inkscape:pageshadow="2"
     inkscape:zoom="0.7"
     inkscape:cx="681.9768"
     inkscape:cy="753.5268"
     inkscape:document-units="px"
     inkscape:current-layer="layer1"
     showgrid="false"
     units="px"
     inkscape:window-width="1920"
     inkscape:window-height="1017"
     inkscape:window-x="1912"
     inkscape:window-y="-8"
     inkscape:window-maximized="1" />
  <metadata
     id="metadata39401">
    <rdf:RDF>
      <cc:Work
         rdf:about="">
        <dc:format>image/svg+xml</dc:format>
        <dc:type
           rdf:resource="http://purl.org/dc/dcmitype/StillImage" />
        <dc:title />
      </cc:Work>
    </rdf:RDF>
  </metadata>
  <g
     inkscape:label="Layer 1"
     inkscape:groupmode="layer"
     id="layer1"
     transform="translate(0,23.961009)">
    <g
       id="g931">
      <g
         transform="matrix(60.194081,0,0,-60.194081,247.30646,111.04834)"
         id="g4240">
        <path
           inkscape:connector-curvature="0"
           style="fill:#36399a;fill-rule:nonzero;stroke:none"
           d="m 0,0 c -0.41,-0.422 -1.015,-0.806 -1.279,-0.942 -0.118,-0.06 -0.237,-0.113 -0.356,-0.16 H 0 Z"
           id="path4242" />
      </g>
      <g
         transform="matrix(60.194081,0,0,-60.194081,244.52532,55.134066)"
         id="g4244">
        <path
           inkscape:connector-curvature="0"
           style="fill:#36399a;fill-rule:nonzero;stroke:none"
           d="M 0,0 C -0.318,0.039 -0.445,0.166 -0.445,0.166 -0.865,0.607 -1.172,0.968 -1.566,1.07 -1.712,1.107 -1.88,1.103 -2.038,1.078 -2.094,1.149 -2.204,1.25 -2.357,1.269 -2.213,1.298 -2.063,1.314 -1.909,1.314 -0.986,1.314 -0.213,0.754 0,0"
           id="path4246" />
      </g>
      <g
         transform="matrix(60.194081,0,0,-60.194081,51.785012,133.41051)"
         id="g4248">
        <path
           inkscape:connector-curvature="0"
           style="fill:#36399a;fill-rule:nonzero;stroke:none"
           d="m 0,0 c 0.047,0.161 0.004,0.392 0.004,0.392 -0.008,0.128 -0.272,1.077 0.324,1.586 0,0 -0.084,0.308 0.161,0.488 -0.691,-0.269 -1.17,-0.878 -1.17,-1.586 v -1.605 h 0.372 c -0.018,0.099 0.029,0.23 0.131,0.377 0,0 0.132,0.187 0.178,0.348"
           id="path4250" />
      </g>
      <g
         transform="matrix(60.194081,0,0,-60.194081,165.53846,144.30555)"
         id="g4252">
        <path
           inkscape:connector-curvature="0"
           style="fill:#ed008c;fill-rule:nonzero;stroke:none"
           d="M 0,0 C 0.672,0.325 1.144,0.744 1.051,0.935 0.958,1.126 0.338,1.019 -0.335,0.694 -1.008,0.37 -1.479,-0.048 -1.386,-0.24 -1.294,-0.432 -0.674,-0.324 0,0 M -0.77,2.424 C -0.399,2.47 -0.16,2.135 0.013,1.863 0.195,1.578 0.254,1.482 0.342,1.429 0.422,1.447 0.521,1.471 0.673,1.465 0.462,1.504 0.213,2.013 -0.008,2.209 -0.275,2.446 -0.539,2.483 -0.785,2.427 Z M -1.367,2.193 C -1.673,1.909 -1.672,1.517 -1.526,0.927 c 0.019,-0.072 0.059,-0.328 0.063,-0.375 0,0 -0.185,-0.161 -0.288,-0.387 0,0 -0.062,-0.168 -0.111,-0.245 l 0.002,-0.003 c 0.15,0.245 0.427,0.527 0.769,0.751 0,0 0.811,0.592 1.845,0.739 L 0.747,1.401 c 0,0 -1.136,-0.235 -1.957,-1.048 -0.257,-0.254 -0.398,-0.514 -0.326,-0.665 0.127,-0.261 0.852,-0.161 1.579,0.189 C 0.77,0.226 1.338,0.751 1.204,1.009 1.064,1.283 0.343,1.179 -0.373,0.817 L -0.397,0.809 C -0.079,1.011 0.476,1.284 1.045,1.368 1.074,1.371 1.189,1.384 1.277,1.375 0.89,1.41 0.765,1.573 0.765,1.573 0.373,2.016 0.097,2.384 -0.281,2.497 -0.421,2.541 -0.598,2.538 -0.761,2.508 -0.924,2.744 -1.174,2.726 -1.288,2.665 -1.349,2.631 -1.394,2.573 -1.415,2.505 -1.439,2.439 -1.428,2.338 -1.386,2.241 c 0.141,0.102 0.299,0.177 0.514,0.237 L -0.885,2.471 C -1.079,2.396 -1.224,2.316 -1.336,2.22 c 0,0 -0.026,-0.02 -0.031,-0.027"
           id="path4254" />
      </g>
      <g
         transform="matrix(60.194081,0,0,-60.194081,92.674451,123.06314)"
         id="g4256">
        <path
           inkscape:connector-curvature="0"
           style="fill:#36399a;fill-rule:nonzero;stroke:none"
           d="m 0,0 c -0.257,-0.255 -0.398,-0.515 -0.326,-0.665 0.126,-0.262 0.852,-0.162 1.58,0.188 0.727,0.349 1.293,0.875 1.16,1.133 C 2.273,0.929 1.553,0.826 0.837,0.464 L 0.813,0.456 c 0.319,0.201 0.873,0.475 1.442,0.558 0,0 0.488,0.076 0.584,-0.153 0.133,-0.31 -0.531,-0.927 -1.553,-1.419 -1.022,-0.491 -1.895,-0.618 -2.041,-0.314 -0.113,0.236 0.282,0.798 0.874,1.187 0,0 0.811,0.591 1.845,0.738 L 1.957,1.048 C 1.957,1.048 0.821,0.813 0,0"
           id="path4258" />
      </g>
      <g
         transform="matrix(60.194081,0,0,-60.194081,119.23115,-1.6348882)"
         id="g4260">
        <path
           inkscape:connector-curvature="0"
           style="fill:#ffffff;fill-rule:nonzero;stroke:none"
           d="m 0,0 c 0.37,0.045 0.609,-0.291 0.782,-0.562 0.183,-0.285 0.242,-0.381 0.33,-0.434 0.08,0.018 0.179,0.042 0.331,0.036 -0.212,0.039 -0.46,0.548 -0.682,0.744 C 0.495,0.02 0.232,0.058 -0.014,0.002 Z"
           id="path4262" />
      </g>
      <g
         transform="matrix(60.194081,0,0,-60.194081,165.53846,144.20928)"
         id="g4264">
        <path
           inkscape:connector-curvature="0"
           style="fill:#36399a;fill-rule:nonzero;stroke:none"
           d="M 0,0 C 0.672,0.325 1.144,0.743 1.051,0.935 0.958,1.127 0.338,1.019 -0.335,0.694 -1.008,0.369 -1.479,-0.048 -1.386,-0.24 -1.294,-0.432 -0.673,-0.324 0,0"
           id="path4266" />
      </g>
      <g
         transform="matrix(60.194081,0,0,-60.194081,148.53483,110.54879)"
         id="g4268">
        <path
           inkscape:connector-curvature="0"
           style="fill:#fee012;fill-rule:nonzero;stroke:none"
           d="m 0,0 c -0.258,-0.073 -0.476,-0.187 -0.634,-0.289 0,0 0.02,-0.288 0.348,-0.234 0,0 -0.321,-0.164 -0.55,0.09 -0.024,-0.018 -0.08,-0.068 -0.08,-0.068 l -0.002,-0.001 c 0.093,-0.096 0.218,-0.183 0.424,-0.168 0.295,0.023 0.54,0.228 0.526,0.504 C 0.028,-0.097 0.025,-0.063 0,0"
           id="path4270" />
      </g>
      <g
         transform="matrix(60.194081,0,0,-60.194081,75.771764,99.551251)"
         id="g4272">
        <path
           inkscape:connector-curvature="0"
           style="fill:#36399a;fill-rule:nonzero;stroke:none"
           d="m 0,0 c 0,0 0.018,-0.094 0.029,-0.192 -0.194,-0.173 -0.29,-0.387 -0.29,-0.387 0.062,0.157 -0.005,0.451 -0.005,0.451 -0.044,0.275 -0.275,1.045 0.265,1.539 -0.039,0.138 -0.02,0.22 0.011,0.309 0.035,0.08 0.116,0.169 0.193,0.202 0,0 -0.229,-0.115 -0.099,-0.425 0.149,0.107 0.311,0.18 0.514,0.238 L 0.606,1.726 C -0.168,1.431 -0.236,0.998 -0.035,0.184 -0.017,0.111 -0.007,0.048 0,0"
           id="path4274" />
      </g>
    </g>
    <g
       id="g901">
      <g
         transform="matrix(60.194081,0,0,-60.194081,58.9902,210.09171)"
         id="g4280">
        <path
           inkscape:connector-curvature="0"
           style="fill:#36399a;fill-rule:nonzero;stroke:none"
           d="M 0,0 H -0.251 V -0.514 H -0.655 V 0.001 H -0.893 L -0.98,0.164 h 1.068 z"
           id="path4282" />
      </g>
      <g
         transform="matrix(60.194081,0,0,-60.194081,81.924124,222.39534)"
         id="g4284">
        <path
           inkscape:connector-curvature="0"
           style="fill:#36399a;fill-rule:nonzero;stroke:none"
           d="M 0,0 H 0.206 L 0.107,0.223 H 0.105 Z M -0.152,0.368 H 0.366 L 0.729,-0.309 H 0.333 l -0.065,0.146 h -0.331 l -0.064,-0.146 h -0.388 z"
           id="path4286" />
      </g>
      <g
         transform="matrix(60.194081,0,0,-60.194081,180.1181,239.80953)"
         id="g4288">
        <path
           inkscape:connector-curvature="0"
           style="fill:#36399a;fill-rule:nonzero;stroke:none"
           d="m 0,0 c -0.074,-0.015 -0.225,-0.031 -0.327,-0.031 -0.356,0 -0.629,0.067 -0.629,0.36 0,0.261 0.292,0.344 0.629,0.344 0.147,0 0.282,-0.013 0.35,-0.025 l -0.08,-0.157 c -0.044,0.007 -0.13,0.012 -0.198,0.012 -0.174,0 -0.289,-0.046 -0.289,-0.174 0,-0.147 0.121,-0.181 0.288,-0.181 0.074,0 0.179,0.013 0.256,0.032 z"
           id="path4290" />
      </g>
      <g
         transform="matrix(60.194081,0,0,-60.194081,217.91427,232.19501)"
         id="g4292">
        <path
           inkscape:connector-curvature="0"
           style="fill:#36399a;fill-rule:nonzero;stroke:none"
           d="M 0,0 C 0.154,0 0.164,0.123 0.165,0.194 0.164,0.257 0.153,0.389 0,0.389 -0.149,0.389 -0.162,0.257 -0.162,0.194 -0.162,0.121 -0.145,0 0,0 m 0,-0.158 c -0.368,0 -0.584,0.12 -0.584,0.35 0,0.227 0.216,0.35 0.584,0.35 0.367,0 0.587,-0.123 0.587,-0.35 0,-0.23 -0.22,-0.35 -0.587,-0.35"
           id="path4294" />
      </g>
    </g>
    <g
       id="g911">
      <g
         transform="matrix(60.194081,0,0,-60.194081,86.17891,256.23052)"
         id="g4296">
        <path
           inkscape:connector-curvature="0"
           style="fill:#36399a;fill-rule:nonzero;stroke:none"
           d="M 0,0 H 0.939 L 0.854,-0.158 H 0.399 V -0.257 H 0.833 V -0.41 H 0.399 V -0.514 H 0.921 V -0.677 H 0 Z"
           id="path4298" />
      </g>
      <g
         transform="matrix(60.194081,0,0,-60.194081,43.405876,288.57282)"
         id="g4300">
        <path
           inkscape:connector-curvature="0"
           style="fill:#36399a;fill-rule:nonzero;stroke:none"
           d="M 0,0 H 0.107 C 0.172,0 0.198,0.003 0.221,0.012 0.247,0.021 0.263,0.044 0.262,0.077 0.262,0.103 0.251,0.128 0.219,0.139 0.194,0.147 0.156,0.147 0.11,0.147 H 0 Z M 0,0.281 H 0.102 C 0.16,0.281 0.187,0.282 0.213,0.29 0.24,0.299 0.252,0.32 0.251,0.349 0.25,0.371 0.24,0.393 0.212,0.402 0.189,0.409 0.154,0.409 0.106,0.409 H 0 Z M 0.463,0.213 C 0.528,0.203 0.627,0.177 0.627,0.051 0.627,-0.028 0.595,-0.083 0.51,-0.113 0.447,-0.135 0.359,-0.14 0.232,-0.14 h -0.628 v 0.677 h 0.6 c 0.144,0 0.27,0.008 0.35,-0.052 C 0.589,0.458 0.608,0.422 0.608,0.371 0.608,0.25 0.517,0.218 0.463,0.213"
           id="path4302" />
      </g>
      <g
         transform="matrix(60.194081,0,0,-60.194081,154.3906,296.98192)"
         id="g4304">
        <path
           inkscape:connector-curvature="0"
           style="fill:#36399a;fill-rule:nonzero;stroke:none"
           d="m 0,0 c -0.111,0 -0.136,0.069 -0.136,0.137 v 0.54 H 0.272 V 0.17 h 0.51 L 0.691,0 Z"
           id="path4306" />
      </g>
      <g
         transform="matrix(60.194081,0,0,-60.194081,212.26192,296.98192)"
         id="g4308">
        <path
           inkscape:connector-curvature="0"
           style="fill:#36399a;fill-rule:nonzero;stroke:none"
           d="m 0,0 c -0.111,0 -0.136,0.069 -0.136,0.137 v 0.54 H 0.272 V 0.17 H 0.781 L 0.69,0 Z"
           id="path4310" />
      </g>
    </g>
  </g>
</svg>
